<?xml version="1.0" encoding="UTF-8" standalone="no"?>
<svg width="687px" height="72px" viewBox="0 0 687 72" version="1.1" xmlns="http://www.w3.org/2000/svg" xmlns:xlink="http://www.w3.org/1999/xlink">
    <!-- Generator: Sketch 42 (36781) - http://www.bohemiancoding.com/sketch -->
    <title>Group</title>
    <desc>Created with Sketch.</desc>
    <defs>
        <rect id="path-1" x="226" y="0" width="460.269989" height="72"></rect>
        <mask id="mask-2" maskContentUnits="userSpaceOnUse" maskUnits="objectBoundingBox" x="0" y="0" width="460.269989" height="72" fill="white">
            <use xlink:href="#path-1"></use>
        </mask>
    </defs>
    <g id="Page-1" stroke="none" stroke-width="1" fill="none" fill-rule="evenodd">
        <g id="Frame-2-Copy" transform="translate(-340.000000, -348.000000)">
            <g id="Group" transform="translate(340.000000, 348.000000)">
                <rect id="Rectangle-3-Copy-17" fill="#FFFFFF" x="0" y="0" width="201.119995" height="72"></rect>
                <path d="M39.3087179,43.808 L35.4905436,28.436 L32.6089026,28.436 L28.7907282,43.808 L27.2778667,23.288 L24,23.288 L26.4133744,48.488 L30.3396103,48.488 L34.0497231,33.692 L37.7598359,48.488 L41.6860718,48.488 L44.0994462,23.288 L40.8215795,23.288 L39.3087179,43.808 Z M52.9965128,48.488 L69.3498256,48.488 L69.3498256,45.464 L56.1663179,45.464 L56.1663179,36.572 L67.1885949,36.572 L67.1885949,33.548 L56.1663179,33.548 L56.1663179,26.312 L68.9896205,26.312 L68.9896205,23.288 L52.9965128,23.288 L52.9965128,48.488 Z M95.8609231,28.4 C94.7082667,25.34 92.0427487,23 87.9724308,23 C85.5590564,23 83.6859897,23.648 82.3172103,24.98 C80.9484308,26.276 80.264041,27.968 80.264041,30.02 C80.4081231,33.044 81.4527179,34.628 83.4698667,35.672 C84.9106872,36.392 85.7751795,36.644 87.5401846,37.076 C89.3772308,37.508 90.0256,37.724 91.1422359,38.192 C91.7185641,38.408 92.1147897,38.624 92.3669333,38.876 C92.8352,39.344 93.2674462,40.136 93.2674462,41.18 C93.2674462,44.168 91.2502974,45.752 88.0804923,45.752 C84.7666051,45.752 82.6053744,43.88 81.6328205,40.136 L78.6791385,41.288 C79.6516923,46.148 83.2177231,48.776 88.0804923,48.776 C93.1593846,48.776 96.4372513,46.076 96.4372513,40.748 C96.3291897,38.12 95.3926564,36.68 93.4115282,35.672 C92.0787692,34.952 91.1062154,34.664 89.2691692,34.196 C87.216,33.656 85.739159,33.116 84.8026256,32.576 C83.9021128,32.036 83.4338462,31.136 83.4338462,29.912 C83.4338462,27.464 85.1988513,26.024 87.9724308,26.024 C90.2777436,26.024 91.9707077,27.284 93.0873436,29.804 L95.8609231,28.4 Z M112.970667,26.312 L112.970667,48.488 L116.140472,48.488 L116.140472,26.312 L123.992944,26.312 L123.992944,23.288 L105.118195,23.288 L105.118195,26.312 L112.970667,26.312 Z M134.330831,26.348 C132.493785,28.544 131.593272,31.748 131.593272,35.888 C131.593272,40.028 132.493785,43.232 134.330831,45.464 C136.167877,47.66 138.50921,48.776 141.390851,48.776 C144.272492,48.776 146.613826,47.66 148.450872,45.464 C150.287918,43.232 151.188431,40.028 151.188431,35.888 C151.188431,31.748 150.287918,28.544 148.450872,26.348 C146.613826,24.116 144.272492,23 141.390851,23 C138.50921,23 136.167877,24.116 134.330831,26.348 Z M146.145559,28.436 C147.334236,30.02 147.910564,32.504 147.910564,35.888 C147.910564,39.272 147.334236,41.756 146.145559,43.376 C144.956882,44.96 143.371979,45.752 141.390851,45.752 C139.409723,45.752 137.824821,44.96 136.636144,43.376 C135.447467,41.756 134.871138,39.272 134.871138,35.888 C134.871138,32.504 135.447467,30.02 136.636144,28.436 C137.824821,26.816 139.409723,26.024 141.390851,26.024 C143.371979,26.024 144.956882,26.816 146.145559,28.436 Z M173.62921,42.728 L163.0752,23.288 L159.617231,23.288 L159.617231,48.488 L162.787036,48.488 L162.787036,29.048 L173.341046,48.488 L176.799015,48.488 L176.799015,23.288 L173.62921,23.288 L173.62921,42.728 Z" id="WESTON-Copy-7" fill="#28407A"></path>
                <use id="Rectangle-3-Copy-18" stroke="#FFFFFF" mask="url(#mask-2)" stroke-width="8" xlink:href="#path-1"></use>
                <path d="M250,48.488 L253.277867,48.488 L255.547159,41.756 L265.416779,41.756 L267.686072,48.488 L270.963938,48.488 L261.994831,23.288 L258.969108,23.288 L250,48.488 Z M264.372185,38.732 L256.591754,38.732 L260.481969,27.392 L264.372185,38.732 Z M295.457887,28.4 C294.305231,25.34 291.639713,23 287.569395,23 C285.156021,23 283.282954,23.648 281.914174,24.98 C280.545395,26.276 279.861005,27.968 279.861005,30.02 C280.005087,33.044 281.049682,34.628 283.066831,35.672 C284.507651,36.392 285.372144,36.644 287.137149,37.076 C288.974195,37.508 289.622564,37.724 290.7392,38.192 C291.315528,38.408 291.711754,38.624 291.963897,38.876 C292.432164,39.344 292.86441,40.136 292.86441,41.18 C292.86441,44.168 290.847262,45.752 287.677456,45.752 C284.363569,45.752 282.202338,43.88 281.229785,40.136 L278.276103,41.288 C279.248656,46.148 282.814687,48.776 287.677456,48.776 C292.756349,48.776 296.034215,46.076 296.034215,40.748 C295.926154,38.12 294.989621,36.68 293.008492,35.672 C291.675733,34.952 290.703179,34.664 288.866133,34.196 C286.812964,33.656 285.336123,33.116 284.39959,32.576 C283.499077,32.036 283.03081,31.136 283.03081,29.912 C283.03081,27.464 284.795815,26.024 287.569395,26.024 C289.874708,26.024 291.567672,27.284 292.684308,29.804 L295.457887,28.4 Z M322.293169,28.4 C321.140513,25.34 318.474995,23 314.404677,23 C311.991303,23 310.118236,23.648 308.749456,24.98 C307.380677,26.276 306.696287,27.968 306.696287,30.02 C306.840369,33.044 307.884964,34.628 309.902113,35.672 C311.342933,36.392 312.207426,36.644 313.972431,37.076 C315.809477,37.508 316.457846,37.724 317.574482,38.192 C318.15081,38.408 318.547036,38.624 318.799179,38.876 C319.267446,39.344 319.699692,40.136 319.699692,41.18 C319.699692,44.168 317.682544,45.752 314.512738,45.752 C311.198851,45.752 309.037621,43.88 308.065067,40.136 L305.111385,41.288 C306.083938,46.148 309.649969,48.776 314.512738,48.776 C319.591631,48.776 322.869497,46.076 322.869497,40.748 C322.761436,38.12 321.824903,36.68 319.843774,35.672 C318.511015,34.952 317.538462,34.664 315.701415,34.196 C313.648246,33.656 312.171405,33.116 311.234872,32.576 C310.334359,32.036 309.866092,31.136 309.866092,29.912 C309.866092,27.464 311.631097,26.024 314.404677,26.024 C316.70999,26.024 318.402954,27.284 319.51959,29.804 L322.293169,28.4 Z M333.099323,48.488 L349.452636,48.488 L349.452636,45.464 L336.269128,45.464 L336.269128,36.572 L347.291405,36.572 L347.291405,33.548 L336.269128,33.548 L336.269128,26.312 L349.092431,26.312 L349.092431,23.288 L333.099323,23.288 L333.099323,48.488 Z M366.238195,26.312 L366.238195,48.488 L369.408,48.488 L369.408,26.312 L377.260472,26.312 L377.260472,23.288 L358.385723,23.288 L358.385723,26.312 L366.238195,26.312 Z" id="ASSET-Copy-6" fill="#FFFFFF"></path>
                <path d="M402,48.488 L405.169805,48.488 L405.169805,30.02 L409.564308,41.252 L411.941662,41.252 L416.336164,30.02 L416.336164,48.488 L419.505969,48.488 L419.505969,23.288 L416.120041,23.288 L410.752985,37.256 L405.385928,23.288 L402,23.288 L402,48.488 Z M427.106297,48.488 L430.384164,48.488 L432.653456,41.756 L442.523077,41.756 L444.792369,48.488 L448.070236,48.488 L439.101128,23.288 L436.075405,23.288 L427.106297,48.488 Z M441.478482,38.732 L433.698051,38.732 L437.588267,27.392 L441.478482,38.732 Z M469.826626,42.728 L459.272615,23.288 L455.814646,23.288 L455.814646,48.488 L458.984451,48.488 L458.984451,29.048 L469.538462,48.488 L472.996431,48.488 L472.996431,23.288 L469.826626,23.288 L469.826626,42.728 Z M480.776862,48.488 L484.054728,48.488 L486.324021,41.756 L496.193641,41.756 L498.462933,48.488 L501.7408,48.488 L492.771692,23.288 L489.745969,23.288 L480.776862,48.488 Z M495.149046,38.732 L487.368615,38.732 L491.258831,27.392 L495.149046,38.732 Z M527.855672,48.488 L527.855672,35.78 L518.922585,35.78 L518.922585,38.804 L524.577805,38.804 C524.253621,43.448 522.344533,45.752 518.922585,45.752 C514.456041,45.752 511.790523,42.548 511.790523,35.888 C511.790523,29.228 514.456041,26.024 518.922585,26.024 C522.056369,26.024 523.821374,27.824 524.974031,31.568 L527.963733,30.668 C526.811077,25.952 523.677292,23 518.922585,23 C515.896862,23 513.411446,24.116 511.430318,26.312 C509.48521,28.508 508.512656,31.712 508.512656,35.888 C508.512656,40.028 509.48521,43.232 511.430318,45.464 C513.375426,47.66 515.7888,48.776 518.706462,48.776 C521.480041,48.776 523.929436,47.516 525.046072,45.104 L525.226174,48.488 L527.855672,48.488 Z M537.040903,48.488 L553.394215,48.488 L553.394215,45.464 L540.210708,45.464 L540.210708,36.572 L551.232985,36.572 L551.232985,33.548 L540.210708,33.548 L540.210708,26.312 L553.03401,26.312 L553.03401,23.288 L537.040903,23.288 L537.040903,48.488 Z M563.011692,48.488 L566.181497,48.488 L566.181497,30.02 L570.576,41.252 L572.953354,41.252 L577.347856,30.02 L577.347856,48.488 L580.517662,48.488 L580.517662,23.288 L577.131733,23.288 L571.764677,37.256 L566.397621,23.288 L563.011692,23.288 L563.011692,48.488 Z M590.711467,48.488 L607.064779,48.488 L607.064779,45.464 L593.881272,45.464 L593.881272,36.572 L604.903549,36.572 L604.903549,33.548 L593.881272,33.548 L593.881272,26.312 L606.704574,26.312 L606.704574,23.288 L590.711467,23.288 L590.711467,48.488 Z M630.838318,42.728 L620.284308,23.288 L616.826338,23.288 L616.826338,48.488 L619.996144,48.488 L619.996144,29.048 L630.550154,48.488 L634.008123,48.488 L634.008123,23.288 L630.838318,23.288 L630.838318,42.728 Z M650.685621,26.312 L650.685621,48.488 L653.855426,48.488 L653.855426,26.312 L661.707897,26.312 L661.707897,23.288 L642.833149,23.288 L642.833149,26.312 L650.685621,26.312 Z" id="MANAGEMENT-Copy-6" fill="#FFFFFF"></path>
            </g>
        </g>
    </g>
</svg>